<svg width="100" height="100" viewBox="0 0 100 100" fill="none" xmlns="http://www.w3.org/2000/svg">
<g id="Bookmark">
<path id="Vector" fill-rule="evenodd" clip-rule="evenodd" d="M45.5918 1.55929C23.818 3.82376 19.2455 6.13179 19.9858 14.58C20.4649 20.2847 21.1181 72.0192 22.8164 91.4849C23.7309 101.893 28.2163 100.108 31.9179 94.4466C34.0952 91.137 47.595 70.6692 50.1643 66.6628C59.1786 77.5933 71.459 93.7059 73.4187 95.4042C79.4718 100.63 79.4718 93.5752 79.6024 90.9188C80.2556 78.8997 80.2992 50.1148 79.4282 36.6586C78.6879 24.5959 78.2524 11.0527 77.8605 10.0511C77.6863 9.61559 77.9041 8.70109 78.296 7.91724C80.8653 2.86571 63.9689 -0.356788 45.5918 1.55929ZM72.6348 7.61239C73.1138 9.61559 73.9848 85.8238 73.5058 85.8238C73.3751 85.8238 66.6688 74.8062 54.6932 62.5258C48.553 56.2114 45.7224 61.7855 40.5403 69.7983C37.0565 75.1982 31.4824 82.5146 29.5228 85.7371C27.476 89.1338 27.5196 89.264 27.1276 64.7468C26.7793 42.3633 26.0825 23.6814 25.4293 18.3686C24.9067 13.9703 26.7357 8.78819 29.1308 7.87369C33.1372 6.34951 70.8929 0.688337 72.6348 7.61239Z" fill="black"/>
</g>
</svg>
