<svg width="80" height="80" viewBox="0 0 80 80" fill="none" xmlns="http://www.w3.org/2000/svg">
<g id="Broom">
<path id="icon" d="M47.7 56.0333L53.2 65.0667M39.1667 61.2333L44.6666 70.2667M56.2333 50.8333L61.7333 59.8667M32.9 18.8999L21.5 25.8333L16.3 17.3C14.4 14.1667 15.4 10.0333 18.5333 8.13332C21.6667 6.23332 25.8 7.23327 27.7 10.3666L32.9 18.8999ZM39.4 30.5332L28.8667 36.9334C22.7334 40.6667 20.8667 48.2 23.8333 54.2L30.6667 68.1333C32.8667 72.6333 38.2 74.1999 42.4667 71.5666L63.9 58.5333C68.2 55.9333 69.2334 50.5 66.2667 46.4667L57.0334 34C53.0334 28.6 45.5334 26.7999 39.4 30.5332ZM18.7735 27.3952L35.8555 16.9932L42.7902 28.3812L25.7082 38.7832L18.7735 27.3952Z" stroke="#292D32" stroke-width="1.5" stroke-linecap="round" stroke-linejoin="round"/>
</g>
</svg>
