<svg width="80" height="80" viewBox="0 0 80 80" fill="none" xmlns="http://www.w3.org/2000/svg">
<g id="Cat" clip-path="url(#clip0_8_684)">
<path id="icon" fill-rule="evenodd" clip-rule="evenodd" d="M10.1527 0.300767C11.1216 -0.182857 12.2807 -0.077127 13.1461 0.573829L35.5289 17.4095C36.9958 17.2334 38.4879 17.1429 40.0001 17.1429C41.5122 17.1429 43.0043 17.2334 44.4711 17.4095L66.8537 0.573829C67.7194 -0.077127 68.8783 -0.182857 69.8474 0.300767C70.816 0.784394 71.4286 1.77424 71.4286 2.85716V50H75.7051C78.072 50 79.9909 51.9188 79.9909 54.2857C79.9909 56.6526 78.072 58.5714 75.7051 58.5714H71.0731C70.5977 61.4051 69.6589 64.0811 68.3371 66.52L76.2023 70.4526C78.3194 71.5109 79.1777 74.0851 78.1189 76.2023C77.0606 78.3194 74.4863 79.1777 72.3691 78.1189L62.9211 73.3949C58.364 77.5006 52.3311 80 45.7143 80H34.2858C27.669 80 21.636 77.5006 17.0791 73.3949L7.63097 78.1189C5.51394 79.1777 2.93963 78.3194 1.8811 76.2023C0.822575 74.0851 1.68068 71.5109 3.79773 70.4526L11.6628 66.52C10.3412 64.0811 9.4024 61.4051 8.92703 58.5714H4.29513C1.92819 58.5714 0.00941467 56.6526 0.00941467 54.2857C0.00941467 51.9188 1.92819 50 4.29513 50H8.57148V2.85716C8.57148 1.77424 9.18371 0.784394 10.1527 0.300767ZM52.1371 44.2857C54.5041 44.2857 56.4229 42.3669 56.4229 40C56.4229 37.6331 54.5041 35.7143 52.1371 35.7143C49.7702 35.7143 47.8514 37.6331 47.8514 40C47.8514 42.3669 49.7702 44.2857 52.1371 44.2857ZM27.8514 44.2875C30.2183 44.2875 32.1371 42.3687 32.1371 40.0018C32.1371 37.6348 30.2183 35.7161 27.8514 35.7161C25.4845 35.7161 23.5657 37.6348 23.5657 40.0018C23.5657 42.3687 25.4845 44.2875 27.8514 44.2875ZM32.9798 53.4578C33.3447 52.2528 34.4553 51.4287 35.7143 51.4287H44.2858C45.5449 51.4287 46.6555 52.2528 47.0203 53.4578C47.3852 54.6629 46.9182 55.9647 45.8706 56.6631L41.5849 59.52C40.6252 60.16 39.3749 60.16 38.4152 59.52L34.1295 56.6631C33.0819 55.9647 32.615 54.6629 32.9798 53.4578Z" fill="black"/>
</g>
<defs>
<clipPath id="clip0_8_684">
<rect width="80" height="80" fill="white"/>
</clipPath>
</defs>
</svg>
