<svg width="80" height="80" viewBox="0 0 80 80" fill="none" xmlns="http://www.w3.org/2000/svg">
<g id="Christian Cross 2">
<path id="icon" fill-rule="evenodd" clip-rule="evenodd" d="M45.7143 6.42507C45.7143 3.26916 43.1559 0.710785 40 0.710785C36.8441 0.710785 34.2857 3.26915 34.2857 6.42507V21.3723H19.3384C16.1825 21.3723 13.6241 23.9307 13.6241 27.0866C13.6241 30.2425 16.1825 32.8008 19.3384 32.8008H34.2857L34.2856 73.8748C34.2856 77.0308 36.844 79.5891 39.9999 79.5891C43.1558 79.5891 45.7142 77.0308 45.7142 73.8748L45.7142 32.8008H60.6611C63.8171 32.8008 66.3754 30.2425 66.3754 27.0866C66.3754 23.9307 63.8171 21.3723 60.6611 21.3723H45.7143V6.42507Z" fill="black"/>
</g>
</svg>
