<svg width="80" height="80" viewBox="0 0 80 80" fill="none" xmlns="http://www.w3.org/2000/svg">
<g id="Dice 6" clip-path="url(#clip0_8_654)">
<path id="icon" fill-rule="evenodd" clip-rule="evenodd" d="M14.2857 0C6.39594 0 0 6.39594 0 14.2857V65.7143C0 73.604 6.39594 80 14.2857 80H65.7143C73.604 80 80 73.604 80 65.7143V14.2857C80 6.39594 73.604 0 65.7143 0H14.2857ZM29.9169 20.4049C29.9169 24.1919 26.8468 27.262 23.0597 27.262C19.2726 27.262 16.2026 24.1919 16.2026 20.4049C16.2026 16.6178 19.2726 13.5477 23.0597 13.5477C26.8468 13.5477 29.9169 16.6178 29.9169 20.4049ZM23.0597 66.4543C26.8468 66.4543 29.9169 63.384 29.9169 59.5971C29.9169 55.81 26.8468 52.7399 23.0597 52.7399C19.2726 52.7399 16.2026 55.81 16.2026 59.5971C16.2026 63.384 19.2726 66.4543 23.0597 66.4543ZM29.9169 40.0017C29.9169 43.7887 26.8468 46.8588 23.0597 46.8588C19.2726 46.8588 16.2026 43.7887 16.2026 40.0017C16.2026 36.2146 19.2726 33.1445 23.0597 33.1445C26.8468 33.1445 29.9169 36.2146 29.9169 40.0017ZM56.9402 27.262C60.7274 27.262 63.7971 24.1919 63.7971 20.4049C63.7971 16.6178 60.7274 13.5477 56.9402 13.5477C53.153 13.5477 50.083 16.6178 50.083 20.4049C50.083 24.1919 53.153 27.262 56.9402 27.262ZM63.7971 59.5971C63.7971 63.384 60.7274 66.4543 56.9402 66.4543C53.153 66.4543 50.083 63.384 50.083 59.5971C50.083 55.81 53.153 52.7399 56.9402 52.7399C60.7274 52.7399 63.7971 55.81 63.7971 59.5971ZM56.9402 46.8588C60.7274 46.8588 63.7971 43.7887 63.7971 40.0017C63.7971 36.2146 60.7274 33.1445 56.9402 33.1445C53.153 33.1445 50.083 36.2146 50.083 40.0017C50.083 43.7887 53.153 46.8588 56.9402 46.8588Z" fill="black"/>
</g>
<defs>
<clipPath id="clip0_8_654">
<rect width="80" height="80" fill="white"/>
</clipPath>
</defs>
</svg>
