<svg width="80" height="80" viewBox="0 0 80 80" fill="none" xmlns="http://www.w3.org/2000/svg">
<g id="Fireworks Rocket">
<path id="icon" fill-rule="evenodd" clip-rule="evenodd" d="M47.6214 8.41354C47.1605 7.95537 46.8059 7.40731 46.5958 6.82829C46.3855 6.24926 46.3277 5.66115 46.4285 5.12713C46.5017 4.57639 46.7325 4.09338 47.0962 3.72966C47.4599 3.36593 47.943 3.13515 48.4937 3.06193L74.7863 0.61124C75.2949 0.559443 75.8411 0.643755 76.3731 0.856394C76.9057 1.06903 77.4074 1.40315 77.832 1.8279C78.2566 2.25266 78.5909 2.75436 78.8034 3.28671C79.016 3.81906 79.1006 4.3649 79.0486 4.87385L76.6703 31.2385C76.5971 31.7892 76.3663 32.2722 76.0023 32.6359C75.6389 32.9997 75.156 33.2305 74.6051 33.3037C74.0851 33.4019 73.5137 33.35 72.9491 33.1531C72.3846 32.9562 71.8468 32.6215 71.3909 32.183L47.6214 8.41354ZM41.5939 49.0572L40.6177 50.0398C37.5807 53.0964 37.572 58.0286 40.5982 61.096L43.0482 63.5794C44.4335 64.9834 44.4182 67.2446 43.0141 68.6297C41.61 70.0149 39.3487 70 37.9635 68.596L35.5135 66.1126C32.0913 62.644 30.7021 57.9257 31.3432 53.443L7.3932 77.3931C5.99846 78.788 3.73717 78.788 2.34244 77.3931C0.947704 75.9983 0.947704 73.7371 2.34244 72.3423L33.6104 41.0743L25.9486 33.4119C24.7246 32.1879 24.8616 30.1653 26.2394 29.1174L44.4081 15.2996L64.4303 35.3218L50.6124 53.4905C49.5645 54.8683 47.5419 55.0052 46.3179 53.7812L41.5939 49.0572ZM54.7549 57.9189C56.1496 56.5241 58.4109 56.5241 59.8057 57.9189L62.3846 60.4977C63.7789 61.892 63.7789 64.1537 62.3846 65.548C60.9897 66.9429 58.7286 66.9429 57.3337 65.548L54.7549 62.9697C53.3602 61.5749 53.3602 59.3137 54.7549 57.9189ZM70.7583 57.9189C72.1531 56.5241 74.4143 56.5241 75.8091 57.9189C77.204 59.3137 77.204 61.5749 75.8091 62.9697L73.2303 65.548C71.8354 66.9429 69.5743 66.9429 68.1794 65.548C66.7846 64.1537 66.7846 61.892 68.1794 60.4977L70.7583 57.9189ZM54.7549 77.3931C56.1496 78.788 58.4109 78.788 59.8057 77.3931L62.3846 74.8143C63.7789 73.4194 63.7789 71.1583 62.3846 69.7634C60.9897 68.3686 58.7286 68.3686 57.3337 69.7634L54.7549 72.3423C53.3602 73.7371 53.3602 75.9983 54.7549 77.3931ZM70.7583 77.3931C72.1531 78.788 74.4143 78.788 75.8091 77.3931C77.204 75.9983 77.204 73.7371 75.8091 72.3423L73.2303 69.7634C71.8354 68.3686 69.5743 68.3686 68.1794 69.7634C66.7846 71.1583 66.7846 73.4194 68.1794 74.8143L70.7583 77.3931Z" fill="black"/>
</g>
</svg>
