<svg width="80" height="80" viewBox="0 0 80 80" fill="none" xmlns="http://www.w3.org/2000/svg">
<g id="Help Question" clip-path="url(#clip0_8_633)">
<path id="icon" fill-rule="evenodd" clip-rule="evenodd" d="M80 40C80 62.0914 62.0914 80 40 80C17.9086 80 0 62.0914 0 40C0 17.9086 17.9086 0 40 0C62.0914 0 80 17.9086 80 40ZM32.8571 30C32.8571 26.0551 36.0551 22.8571 40 22.8571C43.9449 22.8571 47.1429 26.0551 47.1429 30C47.1429 33.9449 43.9449 37.1429 40 37.1429C37.6331 37.1429 35.7143 39.0617 35.7143 41.4286V45.1227C35.7143 47.4897 37.6331 49.4085 40 49.4085C42.3669 49.4085 44.2857 47.4897 44.2857 45.1227C50.8814 43.2573 55.7143 37.193 55.7143 30C55.7143 21.3213 48.6787 14.2857 40 14.2857C31.3213 14.2857 24.2857 21.3213 24.2857 30C24.2857 32.3669 26.2045 34.2857 28.5714 34.2857C30.9383 34.2857 32.8571 32.3669 32.8571 30ZM45.7143 60C45.7143 63.156 43.1559 65.7143 40 65.7143C36.8441 65.7143 34.2857 63.156 34.2857 60C34.2857 56.8441 36.8441 54.2857 40 54.2857C43.1559 54.2857 45.7143 56.8441 45.7143 60Z" fill="black"/>
</g>
<defs>
<clipPath id="clip0_8_633">
<rect width="80" height="80" fill="white"/>
</clipPath>
</defs>
</svg>
