<svg width="80" height="80" viewBox="0 0 80 80" fill="none" xmlns="http://www.w3.org/2000/svg">
<g id="Magic Wand" clip-path="url(#clip0_8_670)">
<path id="icon" fill-rule="evenodd" clip-rule="evenodd" d="M70.5709 21.8502L75.3709 7.67874C75.5137 7.27234 75.5389 6.83383 75.4429 6.41377C75.3474 5.99371 75.1354 5.60923 74.8309 5.30463C74.5263 5.00002 74.1417 4.78769 73.7217 4.69211C73.3017 4.59654 72.8629 4.62162 72.4566 4.76446L58.2851 9.56446C57.9354 9.6876 57.5611 9.72588 57.1937 9.67623C56.826 9.62657 56.4754 9.49034 56.1708 9.27874L44.1708 0.307314C43.8302 0.110214 43.4444 0.0044057 43.0509 0.000134639C42.6574 -0.00413642 42.2694 0.0932743 41.9245 0.282935C41.5797 0.472596 41.2897 0.74808 41.0826 1.08271C40.8754 1.41735 40.7582 1.7998 40.7422 2.19303V17.1645C40.7314 17.5314 40.6386 17.8912 40.4705 18.2175C40.3024 18.5439 40.0633 18.8284 39.7708 19.0502L27.5422 27.6787C27.1914 27.9234 26.9163 28.2617 26.7482 28.6549C26.5801 29.0482 26.5257 29.4807 26.5912 29.9034C26.6567 30.326 26.8394 30.7218 27.1187 31.0458C27.3979 31.3697 27.7625 31.6088 28.1708 31.7359L42.4565 36.193C42.8097 36.2947 43.1312 36.4844 43.391 36.7442C43.6509 37.0041 43.8405 37.3256 43.9422 37.6787L48.3994 51.9645C48.5265 52.3729 48.7655 52.7374 49.0895 53.0166C49.4135 53.2958 49.8093 53.4786 50.2319 53.5441C50.6546 53.6095 51.0871 53.5551 51.4803 53.387C51.8736 53.2188 52.2118 52.9438 52.4565 52.593L60.7994 40.593C61.0211 40.3005 61.3057 40.0614 61.632 39.8934C61.9583 39.7253 62.3183 39.6324 62.6851 39.6216H77.6566C78.0857 39.6325 78.5097 39.5221 78.8789 39.3033C79.2486 39.0844 79.5491 38.7658 79.7457 38.3841C79.9429 38.0024 80.028 37.573 79.992 37.145C79.956 36.7171 79.8 36.3079 79.5423 35.9645L70.5709 23.9645C70.4051 23.6367 70.3189 23.2746 70.3189 22.9073C70.3189 22.5401 70.4051 22.1779 70.5709 21.8502ZM1.67367 70.2451L31.6233 40.2958L37.8858 42.2497L39.7754 48.3061L9.75492 78.3269C7.52332 80.5583 3.90524 80.5583 1.67367 78.3269C-0.557892 76.0948 -0.557892 72.4771 1.67367 70.2451Z" fill="black"/>
</g>
<defs>
<clipPath id="clip0_8_670">
<rect width="80" height="80" fill="white"/>
</clipPath>
</defs>
</svg>
