<svg width="100" height="100" viewBox="0 0 100 100" fill="none" xmlns="http://www.w3.org/2000/svg">
<g id="Magnifying Glass">
<path id="Vector" fill-rule="evenodd" clip-rule="evenodd" d="M29.1857 1.9478C13.0114 5.00185 4.69832 17.1048 4.69832 37.8597C4.64142 59.1242 26.0757 72.1881 48.1315 64.3273L52.2034 62.8567C55.54 66.363 56.1056 66.363 52.5429 68.512C49.715 70.2088 49.9975 71.962 51.8076 72.6408C54.2391 73.5454 69.0002 87.7404 70.9795 91.1903C78.2752 103.915 96.4853 99.4475 95.2413 89.4936C94.6757 84.9694 91.2258 79.7099 87.1539 75.9774C82.6297 71.7922 80.0848 68.3992 76.7477 62.065C73.5244 55.9005 70.6401 54.5432 66.4554 57.0885C64.6453 58.1628 64.4756 58.2192 63.5141 57.3147C61.5348 55.5615 61.6481 54.3739 64.0797 50.6979C73.3547 36.4459 73.8634 24.0041 65.6631 14.1071C54.2391 0.307948 44.4555 5.2849 51.1292 9.58295C67.3599 19.9886 66.5118 41.1399 49.2063 57.0885C39.5918 65.9672 20.2502 61.2168 15.2737 48.775C7.41243 28.981 20.3635 2.85285 41.345 7.03807C48.5838 8.90405 51.4681 -2.23693 29.1857 1.9478ZM26.9239 16.03C24.4918 18.0657 26.0752 19.8189 30.5994 16.7084C33.7668 14.5599 35.2938 14.1635 38.1781 14.8424C41.967 15.691 44.2858 14.7296 43.0982 12.8067C42.7023 12.1278 34.3888 9.75267 26.9234 16.03H26.9239ZM49.6017 15.2947C46.5481 15.125 45.7564 16.8217 47.8485 19.0276C50.4503 21.7987 55.6533 22.2509 55.3703 19.706C55.2011 17.9529 51.9204 15.408 49.6017 15.2947ZM69.2828 62.687C69.7355 64.5534 74.2028 71.1138 76.5785 73.5454C79.4628 76.4297 80.7068 78.3526 84.4392 82.4245C92.0175 90.7381 82.9686 98.9947 75.8432 88.5891C66.8507 75.4683 58.4808 71.34 58.5941 69.813C58.7638 67.8901 68.8869 61.1035 69.2828 62.687Z" fill="black"/>
</g>
</svg>
