<svg width="80" height="80" viewBox="0 0 80 80" fill="none" xmlns="http://www.w3.org/2000/svg">
<g id="Open Book">
<path id="icon" fill-rule="evenodd" clip-rule="evenodd" d="M36.4286 9.44417C30.7778 6.27908 20.2072 2.40748 8.55097 1.02455C3.85007 0.466818 0 4.3406 0 9.07445V54.7887C0 59.5229 3.86873 63.2949 8.52646 64.1406C19.0431 66.0503 27.7904 71.0931 33.372 75.08C34.3071 75.748 35.3421 76.2537 36.4286 76.5977V9.44417ZM43.5714 76.5989C44.6564 76.2554 45.6901 75.7503 46.6239 75.0834C52.2054 71.096 60.9543 66.0514 71.4737 64.1417C76.1314 63.296 80 59.5234 80 54.7895V9.07531C80 4.34142 76.1497 0.467632 71.4491 1.02536C59.7926 2.40829 49.2222 6.27937 43.5714 9.44428V76.5989Z" fill="black"/>
</g>
</svg>
