<svg width="79" height="61" viewBox="0 0 79 61" fill="none" xmlns="http://www.w3.org/2000/svg">
<g id="Settings">
<g id="Icon">
<path d="M39.5 38.125C44.9538 38.125 49.375 34.7112 49.375 30.5C49.375 26.2888 44.9538 22.875 39.5 22.875C34.0462 22.875 29.625 26.2888 29.625 30.5C29.625 34.7112 34.0462 38.125 39.5 38.125Z" stroke="#1E1E1E" stroke-width="4" stroke-linecap="round" stroke-linejoin="round"/>
<path d="M63.8583 38.125C63.4201 38.8916 63.2894 39.742 63.483 40.5665C63.6766 41.391 64.1857 42.1518 64.9445 42.7508L65.1421 42.9033C65.7541 43.3754 66.2397 43.9361 66.571 44.5532C66.9023 45.1703 67.0729 45.8318 67.0729 46.4998C67.0729 47.1678 66.9023 47.8293 66.571 48.4464C66.2397 49.0635 65.7541 49.6241 65.1421 50.0962C64.5306 50.5689 63.8046 50.9438 63.0054 51.1996C62.2062 51.4555 61.3495 51.5871 60.4843 51.5871C59.6192 51.5871 58.7625 51.4555 57.9633 51.1996C57.1641 50.9438 56.438 50.5689 55.8266 50.0962L55.6291 49.9438C54.8534 49.3578 53.868 48.9647 52.8002 48.8152C51.7324 48.6657 50.6311 48.7667 49.6383 49.105C48.6647 49.4272 47.8344 49.9622 47.2496 50.6441C46.6647 51.326 46.3509 52.125 46.3466 52.9429V53.375C46.3466 54.7232 45.653 56.0162 44.4184 56.9695C43.1838 57.9228 41.5093 58.4583 39.7633 58.4583C38.0173 58.4583 36.3428 57.9228 35.1082 56.9695C33.8736 56.0162 33.18 54.7232 33.18 53.375V53.1463C33.1545 52.305 32.8018 51.4891 32.1678 50.8046C31.5338 50.1202 30.6478 49.5988 29.625 49.3083C28.6321 48.97 27.5308 48.8691 26.463 49.0186C25.3952 49.1681 24.4099 49.5611 23.6341 50.1471L23.4366 50.2996C22.8252 50.7722 22.0991 51.1472 21.2999 51.403C20.5007 51.6588 19.6441 51.7905 18.7789 51.7905C17.9138 51.7905 17.0571 51.6588 16.2579 51.403C15.4587 51.1472 14.7326 50.7722 14.1212 50.2996C13.5091 49.8275 13.0235 49.2668 12.6922 48.6497C12.3609 48.0326 12.1904 47.3712 12.1904 46.7031C12.1904 46.0351 12.3609 45.3736 12.6922 44.7565C13.0235 44.1394 13.5091 43.5788 14.1212 43.1067L14.3187 42.9542C15.0776 42.3552 15.5866 41.5943 15.7802 40.7698C15.9738 39.9453 15.8431 39.0949 15.405 38.3283C14.9877 37.5766 14.2949 36.9355 13.4117 36.4839C12.5286 36.0323 11.4938 35.7899 10.4345 35.7867H9.87496C8.12895 35.7867 6.45445 35.2511 5.21984 34.2978C3.98523 33.3445 3.29163 32.0515 3.29163 30.7033C3.29163 29.3552 3.98523 28.0622 5.21984 27.1089C6.45445 26.1556 8.12895 25.62 9.87496 25.62H10.1712C11.2607 25.6003 12.3174 25.328 13.2038 24.8385C14.0902 24.3489 14.7654 23.6648 15.1416 22.875C15.5798 22.1084 15.7105 21.258 15.5169 20.4335C15.3233 19.609 14.8142 18.8482 14.0554 18.2492L13.8579 18.0967C13.2458 17.6246 12.7602 17.0639 12.4289 16.4468C12.0976 15.8297 11.9271 15.1682 11.9271 14.5002C11.9271 13.8322 12.0976 13.1707 12.4289 12.5536C12.7602 11.9365 13.2458 11.3759 13.8579 10.9038C14.4693 10.4311 15.1954 10.0562 15.9946 9.80037C16.7938 9.54455 17.6504 9.41288 18.5156 9.41288C19.3807 9.41288 20.2374 9.54455 21.0366 9.80037C21.8358 10.0562 22.5619 10.4311 23.1733 10.9038L23.3708 11.0563C24.1466 11.6422 25.1319 12.0353 26.1997 12.1848C27.2675 12.3343 28.3688 12.2333 29.3616 11.895H29.625C30.5985 11.5728 31.4289 11.0378 32.0137 10.3559C32.5985 9.67403 32.9124 8.87496 32.9166 8.05709V7.625C32.9166 6.27682 33.6102 4.98386 34.8448 4.03055C36.0795 3.07724 37.754 2.54167 39.5 2.54167C41.246 2.54167 42.9205 3.07724 44.1551 4.03055C45.3897 4.98386 46.0833 6.27682 46.0833 7.625V7.85375C46.0875 8.67163 46.4014 9.4707 46.9862 10.1526C47.5711 10.8345 48.4014 11.3695 49.375 11.6917C50.3678 12.03 51.4691 12.1309 52.5369 11.9814C53.6047 11.8319 54.59 11.4389 55.3658 10.8529L55.5633 10.7004C56.1747 10.2278 56.9008 9.85285 57.7 9.59703C58.4992 9.34122 59.3559 9.20955 60.221 9.20955C61.0862 9.20955 61.9428 9.34122 62.742 9.59703C63.5412 9.85285 64.2673 10.2278 64.8787 10.7004C65.4908 11.1725 65.9764 11.7332 66.3077 12.3503C66.639 12.9674 66.8095 13.6289 66.8095 14.2969C66.8095 14.9649 66.639 15.6264 66.3077 16.2435C65.9764 16.8606 65.4908 17.4212 64.8787 17.8933L64.6812 18.0458C63.9224 18.6449 63.4133 19.4057 63.2197 20.2302C63.0261 21.0547 63.1568 21.9051 63.595 22.6717V22.875C64.0122 23.6268 64.7051 24.2679 65.5882 24.7195C66.4713 25.1711 67.5062 25.4134 68.5654 25.4167H69.125C70.871 25.4167 72.5455 25.9522 73.7801 26.9055C75.0147 27.8589 75.7083 29.1518 75.7083 30.5C75.7083 31.8482 75.0147 33.1412 73.7801 34.0945C72.5455 35.0478 70.871 35.5833 69.125 35.5833H68.8287C67.7695 35.5866 66.7346 35.8289 65.8515 36.2805C64.9684 36.7321 64.2756 37.3733 63.8583 38.125Z" stroke="#1E1E1E" stroke-width="4" stroke-linecap="round" stroke-linejoin="round"/>
</g>
</g>
</svg>
